# ProBuilder 4.2.3
# https://unity3d.com/unity/features/worldbuilding/probuilder
# 2020-02-11 7:24:13 PM

mtllib ./GrassPlane2.mtl
o GrassPlane2

g Plane
v 0.03427124 0 0
v -0.04626465 0 0
v 0.02947998 1 -0.07159424
v -0.08624268 1 -0.07159424
v -0.04641724 2.005276 0

vt 0.03427124 0
vt -0.04626465 0
vt 0.02947998 1.00256
vt -0.08624268 1.00256
vt 0.02947998 0.9923877
vt -0.08624268 0.9923877
vt -0.04641724 2.00021

vn 0 0.07141146 0.997447
vn 0 -0.07103858 0.9974736

usemtl Lit
f 5/7/2 4/6/2 3/5/2
f 4/4/1 2/2/1 1/1/1
f 1/1/1 3/3/1 4/4/1

