# Exported from ProBuilder
# http://www.procore3d.com/probuilder
# 7/18/2018 9:09:00 PM

mtllib ./GrassBlade.mtl
o GrassBlade

g GrassBlade
v 0.04970169 0 0.02728292
v 0.001417208 0 0
v 0.04115939 0.390101 0.00486243
v 0.001417207 0.25 -0.02242049
v 0.001417208 0 0
v -0.0468673 0 0.02728292
v 0.001417207 0.25 -0.02242049
v -0.038325 0.390101 0.00486243
v 0.04115939 0.390101 0.00486243
v 0.001417207 0.25 -0.02242049
v 0.03867317 0.640101 0.002044648
v 0.001417207 0.5 -0.02242049
v 0.001417207 0.25 -0.02242049
v -0.038325 0.390101 0.00486243
v 0.001417207 0.5 -0.02242049
v -0.03583877 0.640101 0.002044648
v 0.03867317 0.640101 0.002044648
v 0.001417207 0.5 -0.02242049
v 0.03657274 0.893898 0.002044648
v 0.001417206 0.75 -0.02523828
v 0.001417207 0.5 -0.02242049
v -0.03583877 0.640101 0.002044648
v 0.001417206 0.75 -0.02523828
v -0.03373834 0.893898 0.002044648
v 0.03657274 0.893898 0.002044648
v 0.001417206 0.75 -0.02523828
v 0.02310552 1.031698 0.02118468
v 0.00141722 1.187126 0.01544535
v 0.001417206 0.75 -0.02523828
v -0.03373834 0.893898 0.002044648
v 0.00141722 1.187126 0.01544535
v -0.02027114 1.031698 0.02118468

vn -0.5815448 0.04912427 0.8120298
vn -0.490451 0.07784265 0.8679852
vn -0.6362686 0.03037183 0.7708696
vn -0.5815448 0.04912427 0.8120298
vn 0.5815447 0.04912429 0.81203
vn 0.4915648 0.0392354 0.8699566
vn 0.7066256 0.0632042 0.7047592
vn 0.5815447 0.04912429 0.81203
vn -0.5624604 0.001862802 0.8268221
vn -0.5659677 0 0.8244274
vn -0.5588201 0.003789514 0.8292803
vn -0.5624604 0.001862802 0.8268221
vn 0.5624602 0.001862802 0.8268223
vn 0.5743555 0.003514611 0.8185984
vn 0.5489058 1.278021E-09 0.8358842
vn 0.5624602 0.001862802 0.8268223
vn -0.5868201 0.002082234 0.8097146
vn -0.5729221 0.009237329 0.8195578
vn -0.6003178 -0.004968235 0.7997462
vn -0.5868201 0.002082234 0.8097146
vn 0.5868199 0.00208224 0.8097148
vn 0.5371661 -0.004445597 0.8434647
vn 0.6350701 0.008705881 0.7724055
vn 0.5868199 0.00208224 0.8097148
vn -0.5149541 -0.1006429 0.8512892
vn -0.3660965 -0.0862367 0.9265725
vn -0.9650966 -0.1261943 0.2294856
vn -0.5149541 -0.1006429 0.8512892
vn 0.5149537 -0.1006429 0.8512895
vn 0.1449715 -0.1500097 0.9779981
vn 0.6800708 -0.06794083 0.7299918
vn 0.5149537 -0.1006429 0.8512895

vt 0.0566933 2.73544E-05
vt 0.00123386 2.73544E-05
vt 0.03822652 0.3904289
vt -0.009795764 0.2506007
vt 0.00123386 -5.427085E-05
vt -0.0542256 -5.42708E-05
vt 0.01226348 0.2507066
vt -0.03575883 0.3900554
vt 0.036486 0.3901677
vt -0.01171729 0.2500658
vt 0.03283234 0.6401692
vt -0.01171729 0.5000643
vt 0.01385765 0.25
vt -0.03434816 0.390101
vt 0.01385765 0.5
vt -0.03070368 0.640101
vt 0.0337181 0.6400099
vt -0.01084828 0.4999076
vt 0.03194644 0.8938095
vt -0.01236191 0.7498946
vt 0.01400727 0.5001409
vt -0.03054468 0.6402478
vt 0.01562171 0.7501516
vt -0.02882318 0.8940229
vt 0.03647725 0.8832821
vt -0.002298817 0.7377372
vt 0.0259621 1.022659
vt 0.003666663 1.175954
vt 0.01059224 0.7452267
vt -0.03212925 0.8896629
vt -0.004357563 1.183988
vt -0.02663755 1.028911

g GrassBlade
usemtl Default_Prototype
f 3/3/3 4/4/4 2/2/2 1/1/1
f 7/7/7 8/8/8 6/6/6 5/5/5
f 11/11/11 12/12/12 10/10/10 9/9/9
f 15/15/15 16/16/16 14/14/14 13/13/13
f 19/19/19 20/20/20 18/18/18 17/17/17
f 23/23/23 24/24/24 22/22/22 21/21/21
f 27/27/27 28/28/28 26/26/26 25/25/25
f 31/31/31 32/32/32 30/30/30 29/29/29

